<svg width="40" height="40" viewBox="0 0 40 40" fill="none" xmlns="http://www.w3.org/2000/svg">
<circle cx="20" cy="20" r="20" fill="black"/>
<g clip-path="url(#clip0_1447_5611)">
<path d="M31 14.7975C30.2642 15.1241 29.4733 15.3441 28.6433 15.4433C29.4908 14.9358 30.1417 14.1316 30.4475 13.1733C29.655 13.6433 28.7767 13.985 27.8417 14.1691C27.0942 13.3716 26.0267 12.8733 24.8467 12.8733C22.1975 12.8733 20.2508 15.345 20.8492 17.9108C17.44 17.74 14.4167 16.1066 12.3925 13.6241C11.3175 15.4683 11.835 17.8808 13.6617 19.1025C12.99 19.0808 12.3567 18.8966 11.8042 18.5891C11.7592 20.49 13.1217 22.2683 15.095 22.6641C14.5175 22.8208 13.885 22.8575 13.2417 22.7341C13.7633 24.3641 15.2783 25.55 17.075 25.5833C15.35 26.9358 13.1767 27.54 11 27.2833C12.8158 28.4475 14.9733 29.1266 17.29 29.1266C24.9083 29.1266 29.2125 22.6925 28.9525 16.9216C29.7542 16.3425 30.45 15.62 31 14.7975V14.7975Z" fill="white"/>
</g>
<defs>
<clipPath id="clip0_1447_5611">
<rect width="20" height="20" fill="white" transform="translate(11 11)"/>
</clipPath>
</defs>
</svg>
